<?xml version="1.0" encoding="utf-8"?>
<!-- Generator: Adobe Illustrator 21.0.2, SVG Export Plug-In . SVG Version: 6.00 Build 0)  -->
<svg version="1.1" id="Layer_1" xmlns="http://www.w3.org/2000/svg" xmlns:xlink="http://www.w3.org/1999/xlink" x="0px" y="0px"
	 viewBox="0 0 16 15.3" style="enable-background:new 0 0 16 15.3;" xml:space="preserve">
<style type="text/css">
	.st0{fill:#757575;}
</style>
<g>
	<path class="st0" d="M15.7,6.4l-3.5,3.4l0.8,4.8c0,0.1,0,0.1,0,0.2c0,0.2-0.1,0.5-0.4,0.5c-0.1,0-0.3,0-0.4-0.1L8,12.9l-4.3,2.3
		c-0.1,0.1-0.2,0.1-0.4,0.1c-0.3,0-0.4-0.2-0.4-0.5c0-0.1,0-0.1,0-0.2l0.8-4.8L0.2,6.4C0.1,6.2,0,6.1,0,5.9c0-0.3,0.3-0.4,0.5-0.4
		l4.8-0.7l2.2-4.4C7.6,0.2,7.8,0,8,0s0.4,0.2,0.5,0.4l2.2,4.4l4.8,0.7c0.2,0,0.5,0.2,0.5,0.4C16,6.1,15.9,6.2,15.7,6.4z"/>
</g>
</svg>
